# xmcd
#
# Track frame offsets: 
#        150
#        14265
#        27115
#        50775
#        65337
#        80572
#        102342
#        115735
#        125985
#        140870
#        154425
#        169722
#        186305
#        199065
#        224017
#
# Disc length: 3020 seconds
#
# Revision: 0
# Processed by: cddbd v1.5.2PL0 Copyright (c) Steve Scherf et al.
# Submitted via: ExactAudioCopy v0.99pb4
#
DISCID=e80bca0f
DTITLE=David Allan Coe - The Very Best Of David Allan Coe
DYEAR=2008
DGENRE=Country
TTITLE0=Ride
TTITLE1=Would You Lay With Me (In A Field Of Stone)
TTITLE2=You Never Even Called Me By My Name
TTITLE3=Wille, Waylon And Me
TTITLE4=Longhaired Redneck
TTITLE5=If That Ain't Country
TTITLE6=Take This Job And Shove It
TTITLE7=(If I Could Climb) The Walls Of The Bottle
TTITLE8=Jack Daniel's, If You Please
TTITLE9=Tennessee Whiskey
TTITLE10=Now I Lay Me Down To Cheat
TTITLE11=Mona Lisa Lost Her Smile
TTITLE12=Don't Cry Darlin'
TTITLE13=Need A Little Time Off For Bad Behavior
TTITLE14=Data Track
EXTD=
EXTT0=
EXTT1=
EXTT2=
EXTT3=
EXTT4=
EXTT5=
EXTT6=
EXTT7=
EXTT8=
EXTT9=
EXTT10=
EXTT11=
EXTT12=
EXTT13=
EXTT14=
PLAYORDER=
